<mxfile host="65bd71144e" modified="2020-11-22T12:59:03.446Z" agent="5.0 (Windows NT 10.0; Win64; x64) AppleWebKit/537.36 (KHTML, like Gecko) Code/1.51.1 Chrome/83.0.4103.122 Electron/9.3.3 Safari/537.36" version="13.6.5" etag="rj0-NIG73Z2Bp4bsybq0">
    <diagram id="8o3RQR1Af4NwcuSsOJv0" name="Page-1">
        <mxGraphModel dx="3120" dy="1190" grid="1" gridSize="10" guides="1" tooltips="1" connect="1" arrows="1" fold="1" page="1" pageScale="1" pageWidth="1169" pageHeight="1654" background="#FFFFFF" math="0" shadow="0">
            <root>
                <mxCell id="0"/>
                <mxCell id="1" parent="0"/>
                <mxCell id="2" value="" style="whiteSpace=wrap;html=1;aspect=fixed;fillColor=#60a917;strokeColor=#2D7600;fontColor=#ffffff;" vertex="1" parent="1">
                    <mxGeometry x="20" y="70" width="40" height="40" as="geometry"/>
                </mxCell>
                <mxCell id="3" value="" style="whiteSpace=wrap;html=1;aspect=fixed;fillColor=#60a917;strokeColor=#2D7600;fontColor=#ffffff;" vertex="1" parent="1">
                    <mxGeometry x="60" y="70" width="40" height="40" as="geometry"/>
                </mxCell>
                <mxCell id="4" value="" style="whiteSpace=wrap;html=1;aspect=fixed;fillColor=#60a917;strokeColor=#2D7600;fontColor=#ffffff;" vertex="1" parent="1">
                    <mxGeometry x="100" y="70" width="40" height="40" as="geometry"/>
                </mxCell>
                <mxCell id="5" value="" style="endArrow=none;html=1;fillColor=#f0a30a;strokeColor=#BD7000;" edge="1" parent="1">
                    <mxGeometry width="50" height="50" relative="1" as="geometry">
                        <mxPoint x="-140" y="150" as="sourcePoint"/>
                        <mxPoint x="40" y="110" as="targetPoint"/>
                    </mxGeometry>
                </mxCell>
                <mxCell id="6" value="" style="endArrow=none;html=1;" edge="1" parent="1">
                    <mxGeometry width="50" height="50" relative="1" as="geometry">
                        <mxPoint x="130" y="180" as="sourcePoint"/>
                        <mxPoint x="180" y="130" as="targetPoint"/>
                    </mxGeometry>
                </mxCell>
                <mxCell id="7" value="" style="endArrow=none;html=1;fillColor=#f0a30a;strokeColor=#BD7000;" edge="1" parent="1">
                    <mxGeometry width="50" height="50" relative="1" as="geometry">
                        <mxPoint x="80" y="150" as="sourcePoint"/>
                        <mxPoint x="79.5" y="110" as="targetPoint"/>
                    </mxGeometry>
                </mxCell>
                <mxCell id="8" value="" style="endArrow=none;html=1;fillColor=#f0a30a;strokeColor=#BD7000;" edge="1" parent="1">
                    <mxGeometry width="50" height="50" relative="1" as="geometry">
                        <mxPoint x="300" y="150" as="sourcePoint"/>
                        <mxPoint x="120" y="110" as="targetPoint"/>
                    </mxGeometry>
                </mxCell>
                <mxCell id="9" value="" style="whiteSpace=wrap;html=1;aspect=fixed;fillColor=#60a917;strokeColor=#2D7600;fontColor=#ffffff;" vertex="1" parent="1">
                    <mxGeometry x="-200" y="150" width="40" height="40" as="geometry"/>
                </mxCell>
                <mxCell id="10" value="" style="whiteSpace=wrap;html=1;aspect=fixed;fillColor=#60a917;strokeColor=#2D7600;fontColor=#ffffff;" vertex="1" parent="1">
                    <mxGeometry x="-160" y="150" width="40" height="40" as="geometry"/>
                </mxCell>
                <mxCell id="11" value="" style="whiteSpace=wrap;html=1;aspect=fixed;fillColor=#60a917;strokeColor=#2D7600;fontColor=#ffffff;" vertex="1" parent="1">
                    <mxGeometry x="-120" y="150" width="40" height="40" as="geometry"/>
                </mxCell>
                <mxCell id="12" value="" style="endArrow=none;html=1;fillColor=#f0a30a;strokeColor=#BD7000;" edge="1" parent="1">
                    <mxGeometry width="50" height="50" relative="1" as="geometry">
                        <mxPoint x="-140" y="230" as="sourcePoint"/>
                        <mxPoint x="-140.5" y="190" as="targetPoint"/>
                    </mxGeometry>
                </mxCell>
                <mxCell id="13" value="" style="endArrow=none;html=1;fillColor=#f0a30a;strokeColor=#BD7000;exitX=0.5;exitY=0;exitDx=0;exitDy=0;" edge="1" parent="1" source="28">
                    <mxGeometry width="50" height="50" relative="1" as="geometry">
                        <mxPoint x="-20" y="230" as="sourcePoint"/>
                        <mxPoint x="-100" y="190" as="targetPoint"/>
                    </mxGeometry>
                </mxCell>
                <mxCell id="14" value="" style="endArrow=none;html=1;fillColor=#f0a30a;strokeColor=#BD7000;exitX=0.5;exitY=0;exitDx=0;exitDy=0;" edge="1" parent="1" source="22">
                    <mxGeometry width="50" height="50" relative="1" as="geometry">
                        <mxPoint x="-260" y="230" as="sourcePoint"/>
                        <mxPoint x="-180" y="190" as="targetPoint"/>
                    </mxGeometry>
                </mxCell>
                <mxCell id="15" value="" style="whiteSpace=wrap;html=1;aspect=fixed;fillColor=#60a917;strokeColor=#2D7600;fontColor=#ffffff;" vertex="1" parent="1">
                    <mxGeometry x="20" y="150" width="40" height="40" as="geometry"/>
                </mxCell>
                <mxCell id="16" value="" style="whiteSpace=wrap;html=1;aspect=fixed;fillColor=#60a917;strokeColor=#2D7600;fontColor=#ffffff;" vertex="1" parent="1">
                    <mxGeometry x="60" y="150" width="40" height="40" as="geometry"/>
                </mxCell>
                <mxCell id="17" value="" style="whiteSpace=wrap;html=1;aspect=fixed;fillColor=#60a917;strokeColor=#2D7600;fontColor=#ffffff;" vertex="1" parent="1">
                    <mxGeometry x="100" y="150" width="40" height="40" as="geometry"/>
                </mxCell>
                <mxCell id="18" value="" style="whiteSpace=wrap;html=1;aspect=fixed;fillColor=#60a917;strokeColor=#2D7600;fontColor=#ffffff;" vertex="1" parent="1">
                    <mxGeometry x="240" y="150" width="40" height="40" as="geometry"/>
                </mxCell>
                <mxCell id="19" value="" style="whiteSpace=wrap;html=1;aspect=fixed;fillColor=#60a917;strokeColor=#2D7600;fontColor=#ffffff;" vertex="1" parent="1">
                    <mxGeometry x="280" y="150" width="40" height="40" as="geometry"/>
                </mxCell>
                <mxCell id="20" value="" style="whiteSpace=wrap;html=1;aspect=fixed;fillColor=#60a917;strokeColor=#2D7600;fontColor=#ffffff;" vertex="1" parent="1">
                    <mxGeometry x="320" y="150" width="40" height="40" as="geometry"/>
                </mxCell>
                <mxCell id="21" value="" style="whiteSpace=wrap;html=1;aspect=fixed;fillColor=#60a917;strokeColor=#2D7600;fontColor=#ffffff;" vertex="1" parent="1">
                    <mxGeometry x="-340" y="230" width="40" height="40" as="geometry"/>
                </mxCell>
                <mxCell id="22" value="" style="whiteSpace=wrap;html=1;aspect=fixed;fillColor=#60a917;strokeColor=#2D7600;fontColor=#ffffff;" vertex="1" parent="1">
                    <mxGeometry x="-300" y="230" width="40" height="40" as="geometry"/>
                </mxCell>
                <mxCell id="23" value="" style="whiteSpace=wrap;html=1;aspect=fixed;fillColor=#60a917;strokeColor=#2D7600;fontColor=#ffffff;" vertex="1" parent="1">
                    <mxGeometry x="-260" y="230" width="40" height="40" as="geometry"/>
                </mxCell>
                <mxCell id="24" value="" style="whiteSpace=wrap;html=1;aspect=fixed;fillColor=#60a917;strokeColor=#2D7600;fontColor=#ffffff;" vertex="1" parent="1">
                    <mxGeometry x="-200" y="230" width="40" height="40" as="geometry"/>
                </mxCell>
                <mxCell id="25" value="" style="whiteSpace=wrap;html=1;aspect=fixed;fillColor=#60a917;strokeColor=#2D7600;fontColor=#ffffff;" vertex="1" parent="1">
                    <mxGeometry x="-160" y="230" width="40" height="40" as="geometry"/>
                </mxCell>
                <mxCell id="26" value="" style="whiteSpace=wrap;html=1;aspect=fixed;fillColor=#60a917;strokeColor=#2D7600;fontColor=#ffffff;" vertex="1" parent="1">
                    <mxGeometry x="-120" y="230" width="40" height="40" as="geometry"/>
                </mxCell>
                <mxCell id="27" value="" style="whiteSpace=wrap;html=1;aspect=fixed;fillColor=#60a917;strokeColor=#2D7600;fontColor=#ffffff;" vertex="1" parent="1">
                    <mxGeometry x="-60" y="230" width="40" height="40" as="geometry"/>
                </mxCell>
                <mxCell id="28" value="" style="whiteSpace=wrap;html=1;aspect=fixed;fillColor=#60a917;strokeColor=#2D7600;fontColor=#ffffff;" vertex="1" parent="1">
                    <mxGeometry x="-20" y="230" width="40" height="40" as="geometry"/>
                </mxCell>
                <mxCell id="29" value="" style="whiteSpace=wrap;html=1;aspect=fixed;fillColor=#60a917;strokeColor=#2D7600;fontColor=#ffffff;" vertex="1" parent="1">
                    <mxGeometry x="20" y="230" width="40" height="40" as="geometry"/>
                </mxCell>
                <mxCell id="30" value="" style="endArrow=none;html=1;fillColor=#f0a30a;strokeColor=#BD7000;" edge="1" parent="1">
                    <mxGeometry width="50" height="50" relative="1" as="geometry">
                        <mxPoint x="300" y="230" as="sourcePoint"/>
                        <mxPoint x="299.5" y="190" as="targetPoint"/>
                    </mxGeometry>
                </mxCell>
                <mxCell id="31" value="" style="endArrow=none;html=1;fillColor=#f0a30a;strokeColor=#BD7000;exitX=0.5;exitY=0;exitDx=0;exitDy=0;" edge="1" parent="1" source="40">
                    <mxGeometry width="50" height="50" relative="1" as="geometry">
                        <mxPoint x="420" y="230" as="sourcePoint"/>
                        <mxPoint x="340" y="190" as="targetPoint"/>
                    </mxGeometry>
                </mxCell>
                <mxCell id="32" value="" style="endArrow=none;html=1;fillColor=#f0a30a;strokeColor=#BD7000;exitX=0.5;exitY=0;exitDx=0;exitDy=0;" edge="1" parent="1" source="34">
                    <mxGeometry width="50" height="50" relative="1" as="geometry">
                        <mxPoint x="180" y="230" as="sourcePoint"/>
                        <mxPoint x="260" y="190" as="targetPoint"/>
                    </mxGeometry>
                </mxCell>
                <mxCell id="33" value="" style="whiteSpace=wrap;html=1;aspect=fixed;fillColor=#60a917;strokeColor=#2D7600;fontColor=#ffffff;" vertex="1" parent="1">
                    <mxGeometry x="100" y="230" width="40" height="40" as="geometry"/>
                </mxCell>
                <mxCell id="34" value="" style="whiteSpace=wrap;html=1;aspect=fixed;fillColor=#60a917;strokeColor=#2D7600;fontColor=#ffffff;" vertex="1" parent="1">
                    <mxGeometry x="140" y="230" width="40" height="40" as="geometry"/>
                </mxCell>
                <mxCell id="35" value="" style="whiteSpace=wrap;html=1;aspect=fixed;fillColor=#60a917;strokeColor=#2D7600;fontColor=#ffffff;" vertex="1" parent="1">
                    <mxGeometry x="180" y="230" width="40" height="40" as="geometry"/>
                </mxCell>
                <mxCell id="36" value="" style="whiteSpace=wrap;html=1;aspect=fixed;fillColor=#60a917;strokeColor=#2D7600;fontColor=#ffffff;" vertex="1" parent="1">
                    <mxGeometry x="240" y="230" width="40" height="40" as="geometry"/>
                </mxCell>
                <mxCell id="37" value="" style="whiteSpace=wrap;html=1;aspect=fixed;fillColor=#60a917;strokeColor=#2D7600;fontColor=#ffffff;" vertex="1" parent="1">
                    <mxGeometry x="280" y="230" width="40" height="40" as="geometry"/>
                </mxCell>
                <mxCell id="38" value="" style="whiteSpace=wrap;html=1;aspect=fixed;fillColor=#60a917;strokeColor=#2D7600;fontColor=#ffffff;" vertex="1" parent="1">
                    <mxGeometry x="320" y="230" width="40" height="40" as="geometry"/>
                </mxCell>
                <mxCell id="39" value="" style="whiteSpace=wrap;html=1;aspect=fixed;fillColor=#60a917;strokeColor=#2D7600;fontColor=#ffffff;" vertex="1" parent="1">
                    <mxGeometry x="380" y="230" width="40" height="40" as="geometry"/>
                </mxCell>
                <mxCell id="40" value="" style="whiteSpace=wrap;html=1;aspect=fixed;fillColor=#60a917;strokeColor=#2D7600;fontColor=#ffffff;" vertex="1" parent="1">
                    <mxGeometry x="420" y="230" width="40" height="40" as="geometry"/>
                </mxCell>
                <mxCell id="41" value="" style="whiteSpace=wrap;html=1;aspect=fixed;fillColor=#60a917;strokeColor=#2D7600;fontColor=#ffffff;" vertex="1" parent="1">
                    <mxGeometry x="460" y="230" width="40" height="40" as="geometry"/>
                </mxCell>
                <mxCell id="42" value="" style="endArrow=none;html=1;fillColor=#f0a30a;strokeColor=#BD7000;" edge="1" parent="1">
                    <mxGeometry width="50" height="50" relative="1" as="geometry">
                        <mxPoint x="-280" y="310" as="sourcePoint"/>
                        <mxPoint x="-280.5" y="270" as="targetPoint"/>
                    </mxGeometry>
                </mxCell>
                <mxCell id="43" value="" style="endArrow=none;html=1;fillColor=#f0a30a;strokeColor=#BD7000;exitX=0.5;exitY=0;exitDx=0;exitDy=0;" edge="1" parent="1" source="52">
                    <mxGeometry width="50" height="50" relative="1" as="geometry">
                        <mxPoint x="-160" y="310" as="sourcePoint"/>
                        <mxPoint x="-240" y="270" as="targetPoint"/>
                    </mxGeometry>
                </mxCell>
                <mxCell id="44" value="" style="endArrow=none;html=1;fillColor=#f0a30a;strokeColor=#BD7000;exitX=0.5;exitY=0;exitDx=0;exitDy=0;" edge="1" parent="1" source="46">
                    <mxGeometry width="50" height="50" relative="1" as="geometry">
                        <mxPoint x="-400" y="310" as="sourcePoint"/>
                        <mxPoint x="-320" y="270" as="targetPoint"/>
                    </mxGeometry>
                </mxCell>
                <mxCell id="45" value="" style="whiteSpace=wrap;html=1;aspect=fixed;fillColor=#60a917;strokeColor=#2D7600;fontColor=#ffffff;" vertex="1" parent="1">
                    <mxGeometry x="-480" y="310" width="40" height="40" as="geometry"/>
                </mxCell>
                <mxCell id="46" value="" style="whiteSpace=wrap;html=1;aspect=fixed;fillColor=#60a917;strokeColor=#2D7600;fontColor=#ffffff;" vertex="1" parent="1">
                    <mxGeometry x="-440" y="310" width="40" height="40" as="geometry"/>
                </mxCell>
                <mxCell id="47" value="" style="whiteSpace=wrap;html=1;aspect=fixed;fillColor=#60a917;strokeColor=#2D7600;fontColor=#ffffff;" vertex="1" parent="1">
                    <mxGeometry x="-400" y="310" width="40" height="40" as="geometry"/>
                </mxCell>
                <mxCell id="48" value="" style="whiteSpace=wrap;html=1;aspect=fixed;fillColor=#60a917;strokeColor=#2D7600;fontColor=#ffffff;" vertex="1" parent="1">
                    <mxGeometry x="-340" y="310" width="40" height="40" as="geometry"/>
                </mxCell>
                <mxCell id="49" value="" style="whiteSpace=wrap;html=1;aspect=fixed;fillColor=#60a917;strokeColor=#2D7600;fontColor=#ffffff;" vertex="1" parent="1">
                    <mxGeometry x="-300" y="310" width="40" height="40" as="geometry"/>
                </mxCell>
                <mxCell id="50" value="" style="whiteSpace=wrap;html=1;aspect=fixed;fillColor=#60a917;strokeColor=#2D7600;fontColor=#ffffff;" vertex="1" parent="1">
                    <mxGeometry x="-260" y="310" width="40" height="40" as="geometry"/>
                </mxCell>
                <mxCell id="51" value="" style="whiteSpace=wrap;html=1;aspect=fixed;fillColor=#60a917;strokeColor=#2D7600;fontColor=#ffffff;" vertex="1" parent="1">
                    <mxGeometry x="-200" y="310" width="40" height="40" as="geometry"/>
                </mxCell>
                <mxCell id="52" value="" style="whiteSpace=wrap;html=1;aspect=fixed;fillColor=#60a917;strokeColor=#2D7600;fontColor=#ffffff;" vertex="1" parent="1">
                    <mxGeometry x="-160" y="310" width="40" height="40" as="geometry"/>
                </mxCell>
                <mxCell id="53" value="" style="whiteSpace=wrap;html=1;aspect=fixed;fillColor=#60a917;strokeColor=#2D7600;fontColor=#ffffff;" vertex="1" parent="1">
                    <mxGeometry x="-120" y="310" width="40" height="40" as="geometry"/>
                </mxCell>
            </root>
        </mxGraphModel>
    </diagram>
</mxfile>